<?xml version="1.0" encoding="utf-8"?>
<!-- Generator: Adobe Illustrator 19.2.1, SVG Export Plug-In . SVG Version: 6.00 Build 0)  -->
<svg version="1.1" id="Layer_1_copy" xmlns="http://www.w3.org/2000/svg" xmlns:xlink="http://www.w3.org/1999/xlink" x="0px"
	 y="0px" viewBox="0 0 205.9 74.2" style="enable-background:new 0 0 205.9 74.2;" xml:space="preserve">
<style type="text/css">
	.st0{fill:#D74755;}
</style>
<title>fuzzy-ai-logo</title>
<path class="st0" d="M0,19.1L5.8,18V11c0-6.4,2.6-10.9,11-10.9c3.2-0.1,6.4,0.5,9.4,1.7v5.8l-6.8-0.1c-3.9-0.1-3.9,1.9-3.9,5.8V18
	h8.4v7.5h-8.4v29.7H5.8V25.4H0V19.1L0,19.1z"/>
<path class="st0" d="M29.8,18h9.8v24.9c0,3.7,1.7,5,4.1,5c4,0,6.1-1,9-3.2V18h9.7v37.2h-7.8l-1.9-4c-3.7,2.2-6.1,4.6-11.8,4.6
	c-8.7,0-11.1-6-11.1-13.1V18z"/>
<path class="st0" d="M67.3,18h30v8.3L81.4,46.8h15.9c0.1,0.1,0,8.3,0,8.3h-29v-8.2l16.7-20.7H67.3V18z"/>
<path class="st0" d="M100.5,18h30v8.3l-15.9,20.6h15.9c0.1,0.1,0,8.3,0,8.3h-29v-8.2l16.7-20.7h-17.7V18z"/>
<path class="st0" d="M143.6,18l6.4,26c0.3,1.8,2,3,3.7,2.7l7.5-28.8h10.2l-12.9,49l-5.1,7.1h-7l5.2-18.9c-5.2,0-9.3-2.6-11.1-9.5
	L133.2,18H143.6z"/>
<path class="st0" d="M174,25.4c0-3.6,2-6.9,7.3-6.9h7.3c0,0,0-1.6,0-1.6c0-2.7-1.3-3.1-3.3-3.1s-8.4,0.4-10.5,0.5v-4.1
	c3.3-1.3,6.7-1.7,11.4-1.7c5.4,0,9,1.8,9,8v17.4H190l-1.4-2.8c-0.3,0.5-3.8,3.1-7.6,3c-4.8-0.1-7.1-3.4-7.1-6.6L174,25.4L174,25.4z
	 M182.9,29.1c2-0.2,4-0.8,5.7-1.9v-4.6l-6,0.5c-1.7,0.2-2,1.5-2,2.5v1.2C180.6,28.9,181.7,29.1,182.9,29.1L182.9,29.1z"/>
<path class="st0" d="M198.8,1.3c-0.1-0.6,0.3-1.1,0.9-1.2c0.1,0,0.1,0,0.2,0h4.9c0.6,0,1,0.4,1.1,0.9c0,0.1,0,0.2,0,0.2v4.1
	c0,0.6-0.4,1-0.9,1.1c0,0-0.1,0-0.1,0h-4.9c-0.5,0.1-1.1-0.3-1.1-0.9c0-0.1,0-0.1,0-0.2V1.3z M199,9.2h6.6v25H199L199,9.2L199,9.2z"
	/>
</svg>
