<svg  width="0" height="0" version="1.1" xmlns="http://www.w3.org/2000/svg" xmlns:xlink="http://www.w3.org/1999/xlink">
  <defs>

    <symbol id="cross" viewBox="0 0 440.5 440.5">
      <title>Cross</title>
      <rect class="cls-1" x="1.44" y="206.97" width="518.15" height="98.07" rx="4" ry="4" transform="translate(585.43 227.2) rotate(136.59)"/>
      <rect class="cls-1" x="1.44" y="206.97" width="518.15" height="98.07" rx="4" ry="4" transform="translate(213.29 585.43) rotate(-133.41)"/>
    </symbol>

    <symbol id="checkmark"  viewBox="0 0 501.18 363.46">
      <title>Checkmark</title>
      <g id="checkmark-group"><rect class="cls-1" x="-5.33" y="262.35" width="263.7" height="83.35" rx="4" ry="4" transform="translate(253.15 -60.15) rotate(46.59)"/>
      <rect class="cls-1" x="101.31" y="201.6" width="440.41" height="83.35" rx="4" ry="4" transform="translate(714.98 135.73) rotate(136.59)"/></g>
    </symbol>

    <symbol id="plus" viewBox="0 0 240 240">
      <title>plus</title>
      <rect width="240" height="20" y="110" class="2e5b9b35-26ca-4949-ba47-57902e8b8040"/>
      <rect width="240" height="20" x="136.84" y="222.64" transform="rotate(90 244.74 107.9)"/>
    </symbol>
    <symbol id="minus" viewBox="0 0 240 20">
      <title>minus-icon</title>
      <rect width="240" height="20"/>
    </symbol>
    <symbol id="circle" viewBox="0 0 200 200">
      <title>circle sun</title>
       <circle cx="100"  cy="100" r="100" />
    </symbol>
    <symbol id="twitter" viewBox="0 0 512 512" >
      <title>Twitter</title>
      <path d="M462 128.22c-15.16 6.72-31.45 11.27-48.55 13.31 17.45-10.46 30.85-27.02 37.16-46.76-16.33 9.69-34.42 16.72-53.68 20.51-15.42-16.43-37.39-26.69-61.7-26.69-54.56 0-94.67 50.92-82.34 103.79-70.25-3.52-132.53-37.18-174.22-88.31-22.14 37.98-11.48 87.69 26.16 112.85-13.85-.44-26.89-4.24-38.28-10.57-.92 39.16 27.15 75.78 67.8 83.95-11.9 3.24-24.93 3.98-38.17 1.45 10.75 33.58 41.97 58.02 78.96 58.7C139.6 378.28 94.85 390.72 50 385.44c37.41 23.98 81.84 37.98 129.57 37.98 156.93 0 245.6-132.55 240.25-251.43 16.52-11.93 30.85-26.82 42.18-43.77z"/>
    </symbol>
    <symbol id="facebook" viewBox="0 0 512 512" >
      <title>Facebook</title>
      <path d="M204.067 184.692h-43.144v70.426h43.144V462h82.965V254.238h57.882l6.162-69.546h-64.044v-39.615c0-16.398 3.302-22.89 19.147-22.89h44.896V50h-57.441c-61.734 0-89.567 27.179-89.567 79.231v55.461z"/>
    </symbol>
    <symbol id="linkedin" viewBox="0 0 512 512" >
      <title>LinkedIn</title>
      <path d="M430.12 251.98v159h-92.19V262.63c0-37.27-13.33-62.71-46.7-62.71-25.47 0-40.63 17.14-47.3 33.72-2.43 5.93-3.06 14.18-3.06 22.48V411h-92.22s1.24-251.29 0-277.32h92.21v39.31c-.19.29-.43.61-.61.9h.61v-.9c12.25-18.87 34.13-45.82 83.1-45.82 60.67-.01 106.16 39.63 106.16 124.81zM52.18 0C20.64 0 0 20.69 0 47.9c0 26.62 20 47.94 51 47.94h.62c32.16 0 52.16-21.32 52.16-47.94C103.13 20.69 83.73 0 52.18 0zM5.47 411h92.19V133.68H5.48V411z"/>
    </symbol>
    <symbol id="github" viewBox="0 0 16 16">
      <title>Github</title>
      <svg viewBox="0 0 16 16" xmlns="http://www.w3.org/2000/svg" fill-rule="evenodd" clip-rule="evenodd" stroke-linejoin="round" stroke-miterlimit="1.414"><path d="M8 0C3.58 0 0 3.582 0 8c0 3.535 2.292 6.533 5.47 7.59.4.075.547-.172.547-.385 0-.19-.007-.693-.01-1.36-2.226.483-2.695-1.073-2.695-1.073-.364-.924-.89-1.17-.89-1.17-.725-.496.056-.486.056-.486.803.056 1.225.824 1.225.824.714 1.223 1.873.87 2.33.665.072-.517.278-.87.507-1.07-1.777-.2-3.644-.888-3.644-3.953 0-.873.31-1.587.823-2.147-.09-.202-.36-1.015.07-2.117 0 0 .67-.215 2.2.82.64-.178 1.32-.266 2-.27.68.004 1.36.092 2 .27 1.52-1.035 2.19-.82 2.19-.82.43 1.102.16 1.915.08 2.117.51.56.82 1.274.82 2.147 0 3.073-1.87 3.75-3.65 3.947.28.24.54.73.54 1.48 0 1.07-.01 1.93-.01 2.19 0 .21.14.46.55.38C13.71 14.53 16 11.53 16 8c0-4.418-3.582-8-8-8"/></svg>
    </symbol>
    <symbol id="angelco" viewBox="0 0 21.9 31.4">
      <title>angelco</title>
      <path d="M18.3 13.4c1.3.2 2.2.8 2.7 1.6s.8 2.2.8 4c0 3.6-1.1 6.6-3.3 8.9-2.2 2.3-5 3.5-8.4 3.5-1.3 0-2.6-.2-3.9-.7-1.3-.5-2.3-1.2-3.2-2-1-.9-1.8-2-2.3-3-.4-1.1-.7-2.2-.7-3.3 0-1.2.3-2.2.8-2.9.5-.7 1.4-1.1 2.5-1.4-.2-.5-.4-.9-.5-1.3-.1-.3-.2-.6-.2-.8 0-.6.3-1.3 1-2s1.3-1 1.9-1c.3 0 .5 0 .8.1.3.1.6.2 1 .5-.9-3-1.8-5.5-2.3-7.2-.5-1.7-.7-2.8-.7-3.5 0-.9.2-1.6.7-2.1C5.4.3 6.1 0 6.9 0c1.3 0 3 3 5.1 9.1.4 1 .6 1.8.8 2.4.2-.4.4-1.1.7-1.9 2.1-6 3.9-9 5.3-9 .7 0 1.3.2 1.8.7.4.5.7 1.2.7 2 0 .6-.2 1.8-.7 3.5-.6 1.7-1.3 3.9-2.3 6.6zM2.9 22.2c.2.2.5.6.8 1.1.9 1.3 1.8 2 2.6 2 .3 0 .5-.1.7-.3.2-.2.3-.4.3-.5 0-.2-.1-.6-.4-1.1-.3-.5-.7-1.1-1.2-1.7-.6-.7-1.1-1.3-1.4-1.6-.4-.3-.7-.5-.9-.5-.5 0-1 .3-1.4.8-.4.5-.6 1.2-.6 1.9 0 .6.1 1.2.4 2 .3.7.7 1.5 1.3 2.2.9 1 1.9 1.9 3.2 2.5 1.3.6 2.6.9 4.2.9 2.8 0 5.1-1 7-3.1 1.9-2.1 2.8-4.7 2.8-7.9 0-1-.1-1.7-.2-2.3-.1-.6-.4-1-.7-1.2-.6-.5-1.7-.9-3.4-1.3s-3.5-.6-5.3-.6c-.5 0-.9.1-1.1.3-.2.2-.3.5-.3.9 0 1 .5 1.7 1.6 2.1 1.1.4 2.9.7 5.3.7h.9c.2 0 .4.1.5.2.1.2.2.4.2.7-.2.2-.7.5-1.5.8-.8.3-1.3.6-1.7.9-.9.6-1.6 1.4-2.1 2.3-.5.9-.8 1.7-.8 2.5 0 .5.1 1 .3 1.7.2.7.3 1.1.3 1.2v.4c-.6 0-1.1-.4-1.5-1.1-.4-.7-.5-1.6-.5-2.8v-.2c-.1.1-.2.2-.3.2-.1 0-.2.1-.4.1h-.4c-.1 0-.2-.1-.4-.1 0 .2.1.3.1.5v.4c0 .5-.2 1-.6 1.4-.4.4-.9.6-1.5.6-.9 0-1.8-.4-2.8-1.3-.9-.9-1.4-1.7-1.4-2.6 0-.2 0-.3.1-.4 0-.5.1-.6.2-.7zm6.5.5c.2 0 .5-.1.7-.3.2-.2.3-.5.3-.7 0-.3-.2-.9-.6-1.9-.4-1-.9-2-1.5-2.9-.4-.7-.9-1.3-1.3-1.6-.4-.4-.8-.5-1.2-.5-.3 0-.6.2-1 .6-.4.4-.5.7-.5 1.1 0 .3.2.9.5 1.6.4.7.8 1.4 1.4 2.2.6.8 1.2 1.5 1.8 2 .6.2 1 .4 1.4.4zm2.1-10.4L9.1 5.6c-.6-1.7-1-2.9-1.4-3.4-.3-.5-.6-.8-1-.8-.3 0-.5.1-.7.3-.3.3-.4.6-.4 1 0 .7.3 1.8.8 3.4.5 1.6 1.3 3.8 2.3 6.4.1-.2.2-.3.4-.3.2-.1.4-.1.6-.1h.5c.3.1.7.1 1.3.2zm2.4 6.5c-.6 0-1.2-.1-1.8-.2-.6-.1-1.1-.2-1.6-.4.2.5.4.9.6 1.4.2.5.3.9.4 1.4.3-.4.7-.8 1.1-1.2.5-.4.9-.7 1.3-1zm2.9-5.8c1-2.6 1.7-4.8 2.3-6.5.5-1.7.8-2.7.8-3.1 0-.4-.1-.7-.3-1-.2-.2-.4-.3-.7-.3-.4 0-.8.3-1.2 1-.4.7-.9 1.7-1.4 3.2l-2.2 6.2 2.7.5z"/>
    </symbol>
    <symbol viewBox="0 0 953.4 373.37" id="cloud-icon">
      <title>Cloud vector</title>
      <path d="M469.86,443.15c-156,0-284.94,0-413.84,0-26.19,0-47.39-17.24-50.77-42.78C3,383.29,10.72,360.09,37.48,351c6.31-2.14,10.87-4.77,14.74-10.74,12.29-19,31.37-27.1,53-30,3.54-.47,5.91-1.62,8.06-4.43,21.84-28.57,51.15-41,86.67-39.26,3.53,0.17,5.09-.41,6.92-3.42,18.76-31,46-49.41,82.11-53.42,11.53-1.28,18.6-6.67,26-15.26,15.89-18.51,36.4-31.12,59.9-38.08,16-4.74,32.43-7.89,49.31-6.76,4.21,0.28,6.61-1.1,9-4.93,20-32,47.94-54.67,83.94-66,53.16-16.78,103.36-9.54,148.82,23.11,30.82,22.14,51,52.56,56.3,90.11,2.23,15.79,8.64,20.11,22.07,24.94C781.22,230.13,805,256.65,814,295.39c1,4.27,1.93,5.8,7.3,5.44,30.46-2,55.55,8.71,72.93,34.34,3.39,5,6.65,5.83,11.77,5.89,29.61,0.34,53.59,23.9,52.2,52.18-1.07,21.84-13.44,36.17-33.2,44.63a47.93,47.93,0,0,1-20.4,3.78c-15.67-.35-31.35-0.47-47-0.05C719.32,445.31,581,441.72,469.86,443.15Z" class="cloud-1" transform="translate(-4.88 -69.97)"/>
      <path d="M875.58,430.17H56.27c-16.61,0-30.7-9.14-36.31-23.49-7.81-20,6.63-42.53,30-46,4.39-.64,6.23-2,8.19-5.83,10.92-21.14,29-31.07,52.35-31.6,4.87-.11,8-1.47,10.59-5.53,17.8-27.74,44-40.33,76.1-37.79,12.36,1,16.79-2.45,22.5-12.4,14.94-26.08,38.76-40.3,68.33-45,2.38-.38,4.94-1.88,7.05-1.37,13.41,3.26,19.69-5.55,26.52-14.47,15.51-20.23,36.83-32,60.75-39.08,16.86-5,34.21-7,51.79-3.8,3.55,0.64,4.74-1.7,6-4.18,21.53-42.36,57.28-65.86,102.77-74.23,43.41-8,83.33,2.26,118.61,29.21C687,134.12,702.33,160.15,709.55,191c1.94,8.27,3.14,16.94,2.34,25.63-0.36,3.88,1,5.51,5.24,6.2,16.07,2.59,31.46,7.28,45,16.9,24.68,17.59,38.47,41.69,42,71.56,0.59,4.94.88,6.54,6.32,4.86,30.27-9.34,65.72,4.8,77.61,35.39,2.07,5.33,5.24,4,9,3.15,18.5-4,39.51,7.16,46.23,24.49,7.54,19.45-5.07,42-26.63,47.7C903.11,430.45,889.26,427.44,875.58,430.17Z" class="cloud-2" transform="translate(-4.88 -69.97)"/>
    </symbol>
  </defs>
</svg>
